<?xml version="1.0" encoding="utf-8"?>
<!-- Generator: Adobe Illustrator 17.1.0, SVG Export Plug-In . SVG Version: 6.00 Build 0)  -->
<!DOCTYPE svg PUBLIC "-//W3C//DTD SVG 1.1//EN" "http://www.w3.org/Graphics/SVG/1.1/DTD/svg11.dtd">
<svg version="1.1" id="Layer_1" xmlns="http://www.w3.org/2000/svg" xmlns:xlink="http://www.w3.org/1999/xlink" x="0px" y="0px"
	 viewBox="0 0 45.6 45.6" enable-background="new 0 0 45.6 45.6" xml:space="preserve">
<circle fill="none" stroke="#E1E1E1" stroke-width="2" stroke-miterlimit="10" cx="22.8" cy="22.8" r="21.8"/>
<g>
	<path fill="#566168" d="M14.2,19c0.2,0,0.3,0.1,0.4,0.2l7.2,7.2l7.2-7.2c0.1-0.1,0.3-0.2,0.4-0.2c0.2,0,0.3,0.1,0.4,0.2l0.9,0.9
		c0.1,0.1,0.2,0.3,0.2,0.4s-0.1,0.3-0.2,0.4l-8.6,8.6c-0.1,0.1-0.3,0.2-0.4,0.2c-0.2,0-0.3-0.1-0.4-0.2l-8.6-8.6
		c-0.1-0.1-0.2-0.3-0.2-0.4s0.1-0.3,0.2-0.4l0.9-0.9C13.9,19,14,19,14.2,19z"/>
</g>
</svg>
